<svg xmlns="http://www.w3.org/2000/svg" viewBox="0 0 88.19 88.01"><defs><style>.cls-1{fill:#2b2837;}.cls-2{fill:#26202c;}.cls-3{fill:#2d2d3e;}.cls-4{fill:#171523;}.cls-5{fill:#7e5a55;}.cls-6{fill:#4b3a2f;}.cls-7{fill:#474652;}.cls-8{fill:#5f5c68;}.cls-9{fill:#bdc8d8;}.cls-10{fill:#8997ac;}.cls-11{fill:#f0f4f7;}.cls-12{fill:#8d7e63;}.cls-13{fill:#ecaf4a;}.cls-14{fill:#5c4644;}.cls-15{fill:#d2c975;}</style></defs><title>attack_1</title><g id="Capa_2" data-name="Capa 2"><g id="Capa_1-2" data-name="Capa 1"><path class="cls-1" d="M1.35.33,18.69,0c1.11,0,2,.25,1.82,1.64-1.29.65-1.13,1.82-1.09,3a1.65,1.65,0,0,0,0,.7l-4,.39c-1.77-.08-3.55,0-5.3-.26C5.9,4.81,4.61,6.64,5.63,10.57q-.09,5-.19,10.08l-1,1.11c-3.31.39-4.62-.85-4.37-4.37C.4,12.17.28,6.92.37,1.69Z"/><path class="cls-1" d="M83.37,77.49c6-1.11,4.3,3.3,4.73,6.43C88.73,88.46,85.86,88,83,88c-3,0-6.69.8-5.52-4.43l.93-1c2,0,4.42.47,4.07-2.9Z"/><path class="cls-2" d="M56.63,78.79c1.28,4.36-1.64,4.12-4.37,3.92s-6,1.45-5.91-3.84c.09-4,.32-6.88,5.09-7a1.2,1.2,0,0,1-.06.65c.27,1.46.53,2.92.8,4.38.49,2.75,2.72,1.33,4.19,1.75Z"/><path class="cls-3" d="M41.47,57.11c-2.51-.28-6.06,1-5.52-3.81a1.15,1.15,0,0,0-1.25-1.23c-4.76.59-3.35-3.19-4-5.52l.14.09c2.09,1.16,6.59-1,5.81,4.23,0,.17.76.7,1.14.67,4.67-.3,3.6,3,3.57,5.62Z"/><path class="cls-4" d="M81.38,56.71l-2.95-.05a.32.32,0,0,0-.51,0c.69-4.45-2.38-5.21-5.67-5.75-.65-3.25.43-5,4-4.24,2.08.42,4.45-1.17,6.26,1C80.4,50.43,81.9,53.69,81.38,56.71Z"/><path class="cls-5" d="M78.41,82.6l-.93,1c-3.58-.38-6.24-1.72-6.09-5.93a6.75,6.75,0,0,0,.92-4l.07-1,5.13,0-.09-.17c-.4,1.88-.63,3.73,1,5.23C78.4,79.3,78.41,81,78.41,82.6Z"/><path class="cls-3" d="M4.4,21.76l1-1.11c2.6,0,5.57-.63,5.24,3.64-.08,1,.73,1.48,1.63,1.43,4.08-.22,3.42,2.45,3.08,5a1.49,1.49,0,0,1-.51.31c-2.49.59-4.79.88-4.56-2.86.11-1.83-1.15-2.33-2.54-2.25C4.64,26.05,4.35,24.09,4.4,21.76Z"/><path class="cls-6" d="M62.39,72.31c1.19,4.93-2.64,5.39-5.76,6.48l-.26-.16c0-.61.09-1.23.14-1.85,1-3.71-1.61-4.15-4.16-4.66l4.33-1.55c1.57,2.14,3.63,1.58,5.69,1A.62.62,0,0,1,62.39,72.31Z"/><path class="cls-7" d="M19.39,5.3a1.65,1.65,0,0,1,0-.7l1.16,0c3.84.19,6.69,1.32,5.83,6.05l-.27,1.41-5.62-1.62.12.08C20.14,8.82,21.48,6.65,19.39,5.3Z"/><path class="cls-8" d="M46.55,30.5c4.19-.39,6.24,1.46,6,5.73l-1,1.39a9.12,9.12,0,0,0-5.06-1.12l.08.09c0-1.84-.07-3.68-.1-5.51l-.15-.34Z"/><path class="cls-1" d="M20.84,36.63c-4.48.75-5.8-1.84-6-5.65a1.49,1.49,0,0,0,.51-.31c4.44-.38,6.52,1.4,5.5,6Z"/><path class="cls-2" d="M72.34,62.19l0,4.43a5.42,5.42,0,0,1,0,.9c-1.68.25-3.34,1.51-5.05.09l0,0a2.26,2.26,0,0,0-.82-2.13V62.58a.73.73,0,0,0,.79-.41h5Z"/><path class="cls-3" d="M72.34,62.19l.06,0V56.57l0,.09a11.14,11.14,0,0,0,5.56,0,.32.32,0,0,1,.51,0C78.08,60.36,76.28,62.45,72.34,62.19Z"/><path class="cls-2" d="M51.4,67.53c-4.73.86-5.24-2.16-5.21-5.67l.17-.22c4.62-.46,6.16,1.65,5,6Z"/><path class="cls-1" d="M56.3,41.61c4.43-1.24,6.72.08,6,5l.11,0-5.89-.24.18.1-.3-4.84Z"/><path class="cls-1" d="M46.55,30.5l-.27.24.15.34-4.82.19.09.19q-.14-2.94-.25-5.88l-.06.11C44.68,25.61,47.82,25.68,46.55,30.5Z"/><path class="cls-2" d="M20.84,36.63l.05,0c4.66-1.46,5.59,1.21,5.5,5l-.18.13C22.93,41.64,19.29,41.84,20.84,36.63Z"/><path class="cls-9" d="M77.92,56.63a11.14,11.14,0,0,1-5.56,0c0-1.84,0-3.69,0-5.53l-.15-.25C75.54,51.42,78.61,52.18,77.92,56.63Z"/><path class="cls-4" d="M72.41,67.52a6.78,6.78,0,0,0,0-.9c2.94.92,6.62,1.21,5.14,6l-5.13,0Z"/><path class="cls-2" d="M41.47,57.11l-.08,0c4-1.13,6-.06,5,4.48l-.17.22C41.77,63.1,40.76,61,41.47,57.11Z"/><path class="cls-2" d="M62.33,46.61c4.27-.9,5.62,1.13,5.06,5.07l0-.12-5.08.16-.07-.07.16-5.07Z"/><path class="cls-1" d="M72.4,51.13c0,1.84,0,3.69,0,5.53l0-.09h-5v0l0-5,0,.12C69.07,51.53,70.81,52,72.4,51.13Z"/><path class="cls-4" d="M62.39,72.31a.62.62,0,0,0,0-.71c0-1.35-.06-2.69-.08-4l4-.24,1.12.31,0,0,0,5-.09.12Z"/><path class="cls-2" d="M30.87,46.64l-.14-.09c-4,.77-5.73-.58-4.52-4.75l.18-.13C30.89,40.62,32.1,42.53,30.87,46.64Z"/><path class="cls-3" d="M26.14,12.09l.27-1.41c3.37-.72,5.78-.36,4.6,4.06l-.57.72C27.65,16.08,25.29,16.13,26.14,12.09Z"/><path class="cls-2" d="M41.25,21.67c0,1.34.09,2.68.14,4l.06-.11c-4.84,1.51-6.05-.6-5-5l-.11.06,4,.24Z"/><path class="cls-7" d="M51.51,37.62l1-1.39c4.89-.77,5.45,1.52,3.8,5.38h.13l-4.94-.18.12.1C51.58,40.22,51.55,38.92,51.51,37.62Z"/><path class="cls-2" d="M72.31,73.62a6.75,6.75,0,0,1-.92,4c-4.4.88-4.43-1.88-4.1-4.94l.09-.12C69.1,72.54,70.85,72.43,72.31,73.62Z"/><path class="cls-4" d="M78.4,77.64c-1.61-1.5-1.38-3.35-1-5.23,2.84,0,6.32-.79,5.13,4.17-.88,0-1.8-.06-2.26,1Z"/><path class="cls-3" d="M36.06,16.7l.3,4,.11-.07c-2.92.28-6.43,1.34-5.21-3.91Z"/><path class="cls-4" d="M56.68,70.57l-4.33,1.55-1,.38a1.2,1.2,0,0,0,.06-.65c0-1.44,0-2.88,0-4.32v.12l5.56,0Z"/><path class="cls-3" d="M81.38,56.71c.52-3-1-6.28,1.09-9.12C82.32,50.66,84.18,54,81.38,56.71Z"/><path class="cls-7" d="M36.06,16.7l-4.8,0-.82-1.22.57-.72C32.35,16.27,35.15,14.07,36.06,16.7Z"/><path class="cls-5" d="M80.29,77.53c.46-1,1.38-.91,2.26-1l.82.91-.89,2.21Z"/><path class="cls-4" d="M20.58,4.63l-1.16,0c0-1.14-.2-2.31,1.09-3Z"/><path class="cls-4" d="M1.35.33l-1,1.36C.23.9.43.36,1.35.33Z"/><path class="cls-7" d="M41.25,21.67l-.87-.78C41.11,20.66,41.34,21,41.25,21.67Z"/><path class="cls-10" d="M57,67.61l-5.56,0c1.13-4.36-.41-6.47-5-6,1.08-4.54-1-5.61-5-4.48,0-2.64,1.1-5.92-3.57-5.62-.38,0-1.17-.5-1.14-.67.78-5.19-3.72-3.07-5.81-4.23,1.23-4.11,0-6-4.48-5,.09-3.78-.84-6.45-5.5-5,1-4.61-1.06-6.39-5.5-6,.34-2.5,1-5.17-3.08-5-.9.05-1.71-.47-1.63-1.43C11,20,8,20.62,5.44,20.65q.1-5,.19-10.08c2.14.23,5-.71,4.86,3.12,0,1.13.68,1.72,1.83,1.94,3.81.75,5.61,4.59,7.59,6.87,2.73,3.14,6.71,4.65,9,8.16.65,1,2.42,1.46,2.39,3.19s.76,2.78,2.65,2.76c1.65,0,2.36.91,2.38,2.49,0,1.27.41,2.43,1.9,2.4,2.35,0,3.27,1,3.21,3.3a1.71,1.71,0,0,0,1.95,1.79c2,0,3.12.73,3.06,2.9,0,1.39.77,1.94,2.13,2.19,3.69.69,3.49,6.16,7.66,6.34-.08,4.63,3.2,3.56,5.89,3.48l.24,1-.27,1.14c-1.8,1.22-4.12,1.79-5.14,4Z"/><path class="cls-9" d="M62.15,61.5c-2.69.08-6,1.15-5.89-3.48-4.17-.18-4-5.65-7.66-6.34-1.36-.25-2.18-.8-2.13-2.19.06-2.17-1.07-2.91-3.06-2.9a1.71,1.71,0,0,1-1.95-1.79c.06-2.26-.86-3.34-3.21-3.3-1.49,0-1.88-1.13-1.9-2.4,0-1.58-.73-2.5-2.38-2.49-1.89,0-2.68-.93-2.65-2.76s-1.74-2.2-2.39-3.19c-2.31-3.51-6.29-5-9-8.16-2-2.28-3.78-6.12-7.59-6.87-1.15-.22-1.86-.81-1.83-1.94.12-3.83-2.72-2.89-4.86-3.12-1-3.93.27-5.76,4.51-5.14,1.75.25,3.53.18,5.3.26-.67,4.2,1.17,5.7,5.2,4.86l-.12-.08c.09,1.6-.86,3.9.71,4.64A20.91,20.91,0,0,1,31.38,25.38c.33.66,1.71.89,2.65,1.14s2.17.35,2.16,1.59c0,4.31,2.89,3.53,5.51,3.35l-.1-.18c-1.07,4.29.64,6,4.93,5.31l-.08-.09c-.7,4.17,1,5.88,5.16,5l-.12-.09c-.81,4.35.91,6,5.24,5l-.18-.1c-1.17,5.1,1.7,5.84,5.73,5.31l.07.07c0,1.76.07,3.52.1,5.27Z"/><path class="cls-11" d="M20.64,10.55c-4,.84-5.87-.66-5.2-4.86l4-.39C21.48,6.65,20.14,8.82,20.64,10.55Z"/><path class="cls-12" d="M80.29,77.53l2.19,2.17c.35,3.37-2,2.9-4.07,2.9,0-1.65,0-3.3,0-5Z"/><path class="cls-13" d="M51.38,72.5l1-.38c2.55.51,5.19.95,4.16,4.66l-4.33.1Z"/><path class="cls-12" d="M52.18,76.88l4.33-.1c0,.62-.1,1.24-.14,1.85C54.9,78.21,52.67,79.63,52.18,76.88Z"/><path class="cls-14" d="M72.31,73.62c-1.46-1.19-3.21-1.08-4.93-1.06l0-5c1.71,1.42,3.37.16,5.05-.09,0,1.7,0,3.39,0,5.09C72.36,73,72.34,73.29,72.31,73.62Z"/><path class="cls-13" d="M57,67.61h0l5.38-.05h-.07c0,1.34.05,2.68.08,4-2.06.55-4.12,1.11-5.69-1Z"/><path class="cls-11" d="M41.7,31.46c-2.62.18-5.55,1-5.51-3.35,0-1.24-1.18-1.34-2.16-1.59s-2.32-.48-2.65-1.14A20.91,20.91,0,0,0,21.23,15.11c-1.57-.74-.62-3-.71-4.64l5.62,1.62c-.85,4,1.51,4,4.3,3.37l.82,1.22c-1.22,5.25,2.29,4.19,5.21,3.91-1.07,4.39.14,6.5,5,5Z"/><path class="cls-11" d="M46.53,36.59c-4.29.68-6-1-4.93-5.31l4.83-.2C46.46,32.91,46.49,34.75,46.53,36.59Z"/><path class="cls-11" d="M51.61,41.52c-4.17.86-5.86-.85-5.16-5a9.12,9.12,0,0,1,5.06,1.12C51.55,38.92,51.58,40.22,51.61,41.52Z"/><path class="cls-8" d="M62.15,61.5l.3-4.51,5-.38v0l0,5.61a.73.73,0,0,1-.79.41l-4.18-.11Z"/><path class="cls-15" d="M67.36,62.17l0-5.61h5v5.59Z"/><path class="cls-15" d="M62.39,62.47l4.18.11v2.93l-.3,1.82-4,.24h.07l-.24-4Z"/><path class="cls-12" d="M66.27,67.33l.3-1.82a2.26,2.26,0,0,1,.82,2.13Z"/><path class="cls-11" d="M62.28,51.65c-4,.53-6.9-.21-5.73-5.31l5.89.24C62.39,48.27,62.34,50,62.28,51.65Z"/><path class="cls-11" d="M56.73,46.44c-4.33,1-6-.66-5.24-5l4.94.17Z"/><path class="cls-11" d="M67.4,56.61l-5,.38c0-1.75-.07-3.51-.1-5.27l5.08-.16Z"/><path class="cls-12" d="M62.12,63.61l.24,4L57,67.62C58,65.4,60.32,64.83,62.12,63.61Z"/></g></g></svg>