<svg xmlns="http://www.w3.org/2000/svg" viewBox="0 0 31.86 36.79"><defs><style>.cls-1{fill:#141414;}.cls-2{fill:#d9d9d9;}.cls-3{fill:#949494;}.cls-4{fill:#161616;}.cls-5{fill:#fdfdfd;}.cls-6{fill:#1c1c1c;}.cls-7{fill:#0b0b0b;}.cls-8{fill:#323232;}.cls-9{fill:#040404;}.cls-10{fill:#202020;}.cls-11{fill:#2a2a2a;}.cls-12{fill:#242424;}.cls-13{fill:#f9f9f9;}.cls-14{fill:#d4d4d4;}</style></defs><title>def</title><g id="Capa_2" data-name="Capa 2"><g id="Capa_1-2" data-name="Capa 1"><path class="cls-1" d="M18.36,36.79c0-.75,0-1.5.05-2.26H13.23l0,2.26Z"/><path class="cls-2" d="M21.23,32l-.05.05c.08-1-.64-2.58.62-2.65,2.22-.13,1.79-1.73,2.22-2.9q0-11.76,0-23.53H21.17c0,2.06,0,4.11,0,6.17,0,1-.28,1.63-1.4,1.63s-1.42-.63-1.41-1.61c0-2.06,0-4.11,0-6.17l-12.95,0q0,6.63-.07,13.26c0,.93-.14,2.18,1,2.33,2,.24,1.68,1.57,1.75,2.87,0,.86-.44,2.13.88,2.35,2.24.38,2.69,2.63,4.05,3.88,1.71,1.59,3.23,3.4,5.29,4.61A4.37,4.37,0,0,1,21.23,32Zm-.08-17.3c0,1-.65,1.19-1.48,1.18a1.11,1.11,0,0,1-1.23-1.41c.1-.84.57-1.38,1.45-1.3S21.13,13.83,21.15,14.67Z"/><path class="cls-3" d="M18.36,32.24c-2.06-1.21-3.58-3-5.29-4.61-1.36-1.25-1.81-3.5-4.05-3.88-1.32-.22-.84-1.49-.88-2.35-.07-1.3.26-2.63-1.75-2.87-1.17-.15-1-1.4-1-2.33q0-6.63.07-13.26L3.05,2.83l-.54,0c.34,6.21.23,12.41.05,18.62h0C4.6,21,5.7,21.57,5.4,23.92a19.13,19.13,0,0,0,0,2.73l-.06,0c2.48-.58,3.05.77,2.87,2.87l0,0c2.05-.52,2.78.28,2.29,2.31l0-.06c2-.07,3.4.43,2.86,2.89l0,0h5.18l-.05,0Z"/><path class="cls-4" d="M3.05,2.83l2.38.11,13,0,2.79,0h5.07l2.88-.15,0,.08C29.44.54,28.48-.06,26.16,0Q16.08.28,6,0C3.71-.06,2.7.48,3.05,2.83Z"/><path class="cls-5" d="M26.24,2.94H24q0,11.76,0,23.53l2.56.1-.06.08.06-4.7a.27.27,0,0,1-.06-.44Z"/><path class="cls-6" d="M29.09,21.48c2.17.21,2.85-.72,2.76-2.93-.19-4.32-.17-8.66,0-13,.08-2.18-.48-3.18-2.75-2.69l0-.08V21.55Z"/><path class="cls-7" d="M2.56,21.5c.18-6.21.29-12.41-.05-18.62C.46,2.44,0,3.35,0,5.31c.13,4.42.16,8.86,0,13.28C-.07,20.63.55,21.55,2.56,21.5Z"/><path class="cls-8" d="M26.58,26.57,24,26.47c-.43,1.17,0,2.77-2.22,2.9-1.26.07-.54,1.7-.62,2.65,1.41.06,3,.35,2.78-1.93a.59.59,0,0,1,.67-.69C27,29.61,26.47,27.88,26.58,26.57Z"/><path class="cls-1" d="M5.39,26.65a19.13,19.13,0,0,1,0-2.73c.3-2.35-.8-2.92-2.86-2.41a9.29,9.29,0,0,1,.13,2.16C2.29,25.89,3.17,26.86,5.39,26.65Z"/><path class="cls-9" d="M26.58,22l-.06,4.7c1.86.07,3-.51,2.55-2.69a11.44,11.44,0,0,1,0-2.48l0,.07-1.74-.12Z"/><path class="cls-10" d="M13.28,34.58c.54-2.46-.88-3-2.86-2.89C10.37,33.65,11,34.93,13.28,34.58Z"/><path class="cls-11" d="M8.2,29.48c.18-2.1-.39-3.45-2.87-2.87C5,28.9,6.1,29.67,8.2,29.48Z"/><path class="cls-12" d="M18.36,32.24v2.34c1.87.14,3.28-.23,2.87-2.61A4.37,4.37,0,0,0,18.36,32.24Z"/><path class="cls-1" d="M10.45,31.75c.49-2-.24-2.83-2.29-2.31C7.87,31.27,8.68,32,10.45,31.75Z"/><path class="cls-13" d="M21.17,2.94,18.38,3c0,2.06,0,4.11,0,6.17,0,1,.29,1.62,1.41,1.61s1.41-.65,1.4-1.63C21.17,7.05,21.17,5,21.17,2.94Z"/><path class="cls-13" d="M21.15,14.67c0-.84-.38-1.45-1.26-1.53s-1.35.46-1.45,1.3a1.11,1.11,0,0,0,1.23,1.41C20.5,15.86,21.14,15.68,21.15,14.67Z"/><path class="cls-14" d="M27.37,21.43l1.74.12V2.79l-2.88.15q.14,9.29.28,18.57Z"/><path class="cls-8" d="M27.37,21.43l-.85.08a.27.27,0,0,0,.06.44Z"/></g></g></svg>