<svg xmlns="http://www.w3.org/2000/svg" viewBox="0 0 24.62 71.44"><defs><style>.cls-1{fill:#474940;}.cls-2{fill:#3b3939;}.cls-3{fill:#63811f;}.cls-4{fill:#8ebb21;}.cls-5{fill:#ebefe6;}.cls-6{fill:#9eda4a;}.cls-7{fill:#92de2a;}</style></defs><title>heigth</title><g id="Capa_2" data-name="Capa 2"><g id="Capa_1-2" data-name="Capa 1"><path class="cls-1" d="M8.72,44.58c-1.45-.26-2,.35-1.74,1.79s-.36,2-1.78,1.75c-.57-.08-1.18.07-1.75,0-1.47-.24-2,.34-1.74,1.78h0L3.48,50l5.2-.1.06-5.3Z"/><path class="cls-1" d="M22.73,49.89c.38-1.46-.18-2-1.65-1.79-.4.06-.82,0-1.22,0-1.76.29-2.72-.16-2.37-2.22.22-1.27-.85-1.24-1.7-1.33l0,0c0,1.75,0,3.5,0,5.25L21,50Z"/><path class="cls-1" d="M19.3,60.46c1.43.26,1.95-.31,1.76-1.77-.1-.81-.44-2,1.19-1.79.63.08.52-.47.53-.85,0-.88,0-1.75,0-2.62l-1.7,0c-.16.6.13,1.29-.36,1.83-.06.71-.09,1.45-1.14,1.3l-.34,2.11,0,1.74Z"/><path class="cls-1" d="M15.7,43.9v-.72l-.29-.29H9.08l-.3.3v.72a.89.89,0,0,1,.12.09c0,.09-.08.17-.11.24l-.08.35,0,0,1.79.08h1.69l1.74,0,1.79,0,0,0a1,1,0,0,0-.09-.34s-.11-.07-.11-.09A2.56,2.56,0,0,1,15.7,43.9Z"/><path class="cls-2" d="M10.54,69.51c.09.62-.49,1.56.38,1.78a5.12,5.12,0,0,0,2.88-.11c.57-.21.09-1.26.24-1.92l-.4,0-1.42,0A2.31,2.31,0,0,1,10.54,69.51Z"/><path class="cls-3" d="M12.22,69.2l1.42,0c-.06-1.57,1.06-1.42,2.07-1.44a.48.48,0,0,0,.07-.26c0-.6,0-1.2,0-1.8-.6,0-1.5-.17-1.61.6-.19,1.26-1,1.2-1.85,1.21a2.86,2.86,0,0,1-.07.28Z"/><path class="cls-3" d="M21.12,53.45l1.7,0h0c0-1.08,0-2.16,0-3.24a.84.84,0,0,0-.08-.31L21,50C21,51.12,21.07,52.29,21.12,53.45Z"/><path class="cls-1" d="M1.71,53.41a11.34,11.34,0,0,1,0,1.75c-.24,1.48.31,2.05,1.77,1.76h0l0-1.76-.08-1.66-1.7-.1Z"/><path class="cls-1" d="M3.47,56.92a10.32,10.32,0,0,1,0,1.76c-.24,1.46.31,2,1.77,1.77v0l.06-1.76-.14-1.62-1.67-.14Z"/><path class="cls-1" d="M17.54,64c1.43.24,2-.33,1.76-1.78a9.3,9.3,0,0,1,0-1.75l0,0-1.65.08-.09,1.69,0,1.75Z"/><path class="cls-1" d="M5.22,60.45a9.3,9.3,0,0,1,0,1.75c-.3,1.51.41,2,1.76,1.81,0-.61,0-1.21,0-1.82,0-.45,0-.9-.07-1.35a3,3,0,0,0-1.72-.41Z"/><path class="cls-1" d="M15.76,65.73c0,.6,0,1.2,0,1.8,1.37.17,2-.29,1.76-1.8a10.11,10.11,0,0,1,0-1.74l0,0a3.63,3.63,0,0,1-1.68.41Z"/><path class="cls-1" d="M1.35,53.34l.36.07v0l0-1.77,0-1.75h0l-.36.06c-.11.18-.22.17-.33,0H.3l-.29.3v2.84l.29.29H1C1.13,53.17,1.24,53.17,1.35,53.34Z"/><path class="cls-1" d="M22.81,50.2c0,1.08,0,2.16,0,3.24,1.16.09,1.83-.06,1.82-1.61S24,50.08,22.81,50.2Z"/><path class="cls-1" d="M7,64.23A10.54,10.54,0,0,1,7,65.61c-.24,1.43.22,2.18,1.78,1.94l.06-1.84c0-.46-.05-.92-.08-1.37Z"/><path class="cls-4" d="M7,64.23l1.69.11c.14-1.28,0-2.34-1.7-2.15L7,64A.3.3,0,0,0,7,64.23Z"/><path class="cls-4" d="M8.8,65.71l-.06,1.84a.15.15,0,0,0,0,.18l1.71.11.07-.08C10.55,66.58,10.43,65.49,8.8,65.71Z"/><path class="cls-4" d="M12.22,69.2c0-.46,0-.92,0-1.38l-1.67-.06-.07.08v1.47a.21.21,0,0,0,0,.2A2.31,2.31,0,0,0,12.22,69.2Z"/><path class="cls-1" d="M15.71,67.79c-1,0-2.13-.13-2.07,1.44l.4,0C15.05,69.29,16.16,69.43,15.71,67.79Z"/><path class="cls-1" d="M10.49,69.31V67.84l-1.71-.11C8.31,69.4,9.49,69.25,10.49,69.31Z"/><path class="cls-2" d="M0,50.22l.29-.3C.07,49.89,0,50,0,50.22Z"/><path class="cls-2" d="M.3,53.35,0,53.06C0,53.29.07,53.39.3,53.35Z"/><path class="cls-2" d="M1,49.92c.11.18.22.19.33,0l-.16,0Z"/><path class="cls-2" d="M1.35,53.34c-.11-.17-.22-.17-.33,0A.35.35,0,0,0,1.35,53.34Z"/><path class="cls-2" d="M8.8,44.23c0-.07.08-.15.11-.24a.89.89,0,0,0-.12-.09A.32.32,0,0,0,8.8,44.23Z"/><path class="cls-2" d="M15.7,43.9a2.56,2.56,0,0,0-.11.24s.07.06.11.09A.33.33,0,0,0,15.7,43.9Z"/><path class="cls-2" d="M8.78,43.18l.3-.3Q8.72,42.82,8.78,43.18Z"/><path class="cls-2" d="M15.42,42.89l.29.29C15.75,42.94,15.65,42.85,15.42,42.89Z"/><path class="cls-5" d="M8.68,49.9,3.48,50c0,.55,0,1.1,0,1.65,1.21,0,2.42,0,3.61.1C8.49,51.87,9,51.32,8.71,50Z"/><path class="cls-4" d="M10.53,44.68,8.74,44.6l-.06,5.3,0,.07c.94-.09,2,0,1.79-1.51C9.62,47.19,10.73,45.94,10.53,44.68Z"/><path class="cls-6" d="M3.47,51.64c0-.55,0-1.1,0-1.65l-1.77-.12,0,1.75,1.68.15Z"/><path class="cls-4" d="M15.76,65.73l.06-1.37c-.23-1.35,0-2.34,1.7-2.16l.09-1.69c-.41-1.5.25-2,1.67-1.82l.34-2.11c-.86-1.53.11-1.44,1.14-1.3.49-.54.2-1.23.36-1.83C21.07,52.29,21,51.12,21,50l-5.19-.09c-1.5.31-1.92-.38-1.81-1.78.09-1.13,0-2.29,0-3.43l-1.74,0c-.05,1.27.91,2.52,0,3.8l.05,19.07c.86,0,1.66,0,1.85-1.21C14.26,65.56,15.16,65.78,15.76,65.73Z"/><path class="cls-3" d="M14,44.65c0,1.14.11,2.3,0,3.43-.11,1.4.31,2.09,1.81,1.78,0-1.75,0-3.5,0-5.25Z"/><path class="cls-3" d="M19.28,58.69c-1.42-.19-2.08.32-1.67,1.82l1.65-.08Z"/><path class="cls-3" d="M20.76,55.28c-1-.14-2-.23-1.14,1.3C20.67,56.73,20.7,56,20.76,55.28Z"/><path class="cls-6" d="M12.25,48.47c.88-1.28-.08-2.53,0-3.8H10.53c.2,1.26-.91,2.51,0,3.78Z"/><path class="cls-7" d="M12.25,48.47H10.5C10.76,50,9.65,49.88,8.71,50c.28,1.35-.22,1.9-1.63,1.77-1.19-.12-2.4-.07-3.61-.1l-.05.13v1.72c0,.56.05,1.11.08,1.66,1.53-.22,2,.5,1.65,1.9,0,.54.09,1.08.14,1.62,1.89-.3,1.78.93,1.66,2.17,0,.45,0,.9.07,1.35,1.7-.19,1.84.87,1.7,2.15,0,.45,0,.91.08,1.37,1.63-.22,1.75.87,1.76,2.05l1.67.06a2.86,2.86,0,0,0,.07-.28Q12.27,58,12.25,48.47Z"/><path class="cls-4" d="M5.15,57.05c.34-1.4-.12-2.12-1.65-1.9,0,.59,0,1.18,0,1.76Z"/><path class="cls-4" d="M3.42,53.49V51.77l-1.68-.15c0,.59,0,1.18,0,1.77Z"/><path class="cls-4" d="M7,60.84c.12-1.24.23-2.47-1.66-2.17l-.06,1.76A3,3,0,0,1,7,60.84Z"/><path class="cls-3" d="M17.52,62.2c-1.7-.18-1.93.81-1.7,2.16A3.63,3.63,0,0,0,17.5,64Z"/><path class="cls-1" d="M15.9,26.86c1.45.26,2-.34,1.74-1.78s.36-2,1.78-1.76c.57.09,1.18-.07,1.75,0,1.47.25,2-.34,1.74-1.78h0l-1.77-.12-5.2.09c0,1.77,0,3.53-.07,5.3Z"/><path class="cls-1" d="M1.89,21.55c-.38,1.46.18,2,1.65,1.79.4-.06.82.05,1.22,0,1.76-.28,2.72.16,2.37,2.23-.22,1.27.85,1.24,1.7,1.32l0,0c0-1.75,0-3.49,0-5.24l-5.19-.1Z"/><path class="cls-1" d="M5.32,11c-1.43-.25-1.95.31-1.76,1.77.1.81.44,2-1.19,1.79-.63-.08-.52.47-.53.86,0,.87,0,1.74,0,2.62l1.7,0c.16-.6-.13-1.29.36-1.82.06-.72.09-1.46,1.14-1.31l.34-2.11,0-1.73Z"/><path class="cls-1" d="M8.92,27.54v.72l.29.3h6.34l.29-.3v-.72s-.12-.07-.12-.09a1.75,1.75,0,0,1,.11-.24l.08-.35,0,0-1.78-.07H12.4l-1.74,0-1.79,0,0,0a1,1,0,0,0,.09.34A.65.65,0,0,1,9,27.3,1.75,1.75,0,0,1,8.92,27.54Z"/><path class="cls-2" d="M14.08,1.94C14,1.32,14.57.37,13.7.16a5,5,0,0,0-2.88.1c-.57.22-.09,1.27-.24,1.93l.4,0,1.42,0A2.25,2.25,0,0,1,14.08,1.94Z"/><path class="cls-3" d="M12.4,2.24,11,2.22C11,3.79,9.92,3.64,8.91,3.65a.5.5,0,0,0-.07.27c0,.6,0,1.19,0,1.79.6,0,1.5.17,1.61-.6.19-1.26,1-1.2,1.85-1.2,0-.1,0-.19.07-.29Z"/><path class="cls-3" d="M3.5,18,1.8,18l0,0c0,1.08,0,2.16,0,3.24a.84.84,0,0,0,.08.31l1.75-.06C3.59,20.33,3.55,19.16,3.5,18Z"/><path class="cls-1" d="M22.91,18a11.35,11.35,0,0,1,0-1.75c.24-1.47-.31-2.05-1.77-1.76h0l0,1.76L21.2,18l1.7.1Z"/><path class="cls-1" d="M21.15,14.52a10.22,10.22,0,0,1,0-1.75c.24-1.47-.31-2.06-1.77-1.77h0l-.06,1.77.14,1.61,1.67.14Z"/><path class="cls-1" d="M7.07,7.46c-1.42-.24-2,.32-1.75,1.78a9.19,9.19,0,0,1,0,1.74l0,0L7,10.93,7.1,9.24l0-1.75Z"/><path class="cls-1" d="M19.4,11a9.29,9.29,0,0,1,0-1.75c.3-1.52-.41-2-1.76-1.81,0,.6,0,1.21,0,1.81,0,.45,0,.9.07,1.35a2.88,2.88,0,0,0,1.72.41Z"/><path class="cls-1" d="M8.86,5.71c0-.6,0-1.19,0-1.79-1.37-.18-2,.29-1.76,1.79a9.31,9.31,0,0,1,0,1.75l0,0a3.5,3.5,0,0,1,1.68-.4Z"/><path class="cls-1" d="M23.27,18.11,22.91,18v0l0,1.78,0,1.74h0l.36-.06c.11-.18.22-.17.33,0h.71l.3-.3V18.39l-.3-.3H23.6C23.49,18.27,23.38,18.28,23.27,18.11Z"/><path class="cls-1" d="M1.81,21.24c0-1.08,0-2.16,0-3.24C.66,17.91,0,18.07,0,19.62S.61,21.36,1.81,21.24Z"/><path class="cls-1" d="M17.59,7.21a12.63,12.63,0,0,1,.06-1.38c.24-1.43-.21-2.17-1.77-1.93l-.06,1.83c0,.46,0,.92.08,1.38Z"/><path class="cls-4" d="M17.59,7.21l-1.69-.1c-.14,1.27,0,2.33,1.7,2.14l0-1.81A.31.31,0,0,0,17.59,7.21Z"/><path class="cls-4" d="M15.82,5.73l.06-1.83a.17.17,0,0,0,0-.19l-1.71-.1-.07.07C14.07,4.86,14.18,6,15.82,5.73Z"/><path class="cls-4" d="M12.4,2.24c0,.46,0,.92,0,1.38l1.67.06.07-.07V2.14a.23.23,0,0,0-.05-.21A2.31,2.31,0,0,0,12.4,2.24Z"/><path class="cls-1" d="M8.91,3.65c1,0,2.13.14,2.07-1.43l-.4,0C9.57,2.15,8.46,2,8.91,3.65Z"/><path class="cls-1" d="M14.13,2.14V3.61l1.71.1C16.31,2,15.13,2.19,14.13,2.14Z"/><path class="cls-2" d="M24.61,21.22l-.3.3Q24.67,21.58,24.61,21.22Z"/><path class="cls-2" d="M24.31,18.09l.3.3Q24.67,18,24.31,18.09Z"/><path class="cls-2" d="M23.6,21.52c-.11-.18-.22-.19-.33,0l.16,0Z"/><path class="cls-2" d="M23.27,18.11c.11.17.22.16.33,0A.3.3,0,0,0,23.27,18.11Z"/><path class="cls-2" d="M15.82,27.21a1.75,1.75,0,0,0-.11.24s.08.06.12.09A.35.35,0,0,0,15.82,27.21Z"/><path class="cls-2" d="M8.92,27.54A1.75,1.75,0,0,0,9,27.3a.65.65,0,0,0-.11-.09A.33.33,0,0,0,8.92,27.54Z"/><path class="cls-2" d="M15.83,28.26l-.29.3C15.78,28.6,15.88,28.5,15.83,28.26Z"/><path class="cls-2" d="M9.2,28.56l-.29-.3C8.87,28.5,9,28.6,9.2,28.56Z"/><path class="cls-5" d="M15.94,21.54l5.2-.09c0-.55,0-1.1,0-1.65-1.21,0-2.42,0-3.61-.09-1.41-.14-1.91.41-1.63,1.76Z"/><path class="cls-4" d="M14.09,26.77l1.78.07c0-1.77.05-3.53.07-5.3l0-.07c-.94.09-2.05,0-1.79,1.51C15,24.25,13.89,25.5,14.09,26.77Z"/><path class="cls-6" d="M21.15,19.8c0,.55,0,1.1,0,1.65l1.77.12,0-1.74-1.68-.16Z"/><path class="cls-4" d="M8.86,5.71,8.8,7.09C9,8.43,8.8,9.42,7.1,9.24L7,10.93c.41,1.5-.25,2-1.67,1.82L5,14.86c.86,1.53-.11,1.45-1.14,1.31-.49.53-.2,1.22-.36,1.82,0,1.17.09,2.34.14,3.5l5.19.1c1.49-.32,1.92.37,1.81,1.77-.09,1.14,0,2.29,0,3.43l1.74,0c0-1.26-.91-2.52,0-3.79l0-19.07c-.86,0-1.66-.06-1.85,1.2C10.36,5.88,9.46,5.66,8.86,5.71Z"/><path class="cls-3" d="M10.66,26.79c0-1.14-.11-2.29,0-3.43.11-1.4-.32-2.09-1.81-1.77,0,1.75,0,3.49,0,5.24Z"/><path class="cls-3" d="M5.34,12.75c1.42.19,2.08-.32,1.67-1.82L5.36,11Z"/><path class="cls-3" d="M3.86,16.17c1,.14,2,.22,1.14-1.31C4,14.71,3.92,15.45,3.86,16.17Z"/><path class="cls-6" d="M12.37,23c-.88,1.27.08,2.53,0,3.79h1.69c-.2-1.27.91-2.52,0-3.79Z"/><path class="cls-7" d="M12.37,23h1.75c-.26-1.53.85-1.42,1.79-1.51-.28-1.35.22-1.9,1.63-1.76,1.19.12,2.4.07,3.61.09l.05-.13V18c0-.55-.05-1.11-.08-1.66-1.53.22-2-.49-1.65-1.9,0-.54-.09-1.08-.14-1.61-1.89.3-1.78-.94-1.66-2.18,0-.45-.05-.9-.07-1.35-1.7.19-1.84-.87-1.7-2.14,0-.46-.05-.92-.08-1.38-1.64.22-1.75-.87-1.76-2.05l-1.67-.06c0,.1-.05.19-.07.29Q12.35,13.43,12.37,23Z"/><path class="cls-4" d="M19.47,14.39c-.34,1.41.12,2.12,1.65,1.9,0-.59,0-1.17,0-1.76Z"/><path class="cls-4" d="M21.2,18v1.72l1.68.16c0-.59,0-1.19,0-1.78Z"/><path class="cls-4" d="M17.67,10.6c-.12,1.24-.23,2.48,1.66,2.18L19.39,11A2.88,2.88,0,0,1,17.67,10.6Z"/><path class="cls-3" d="M7.1,9.24C8.8,9.42,9,8.43,8.8,7.09a3.5,3.5,0,0,0-1.68.4Z"/></g></g></svg>