<svg xmlns="http://www.w3.org/2000/svg" viewBox="0 0 42.3 37.77"><defs><style>.cls-1{fill:#830a0a;}.cls-2{fill:#740303;}.cls-3{fill:#dc2928;}.cls-4{fill:#4c0303;}.cls-5{fill:#fae0df;}.cls-6{fill:#af1b1b;}.cls-7{fill:#c32120;}.cls-8{fill:#f76f6f;}</style></defs><title>hp</title><g id="Capa_2" data-name="Capa 2"><g id="Capa_1-2" data-name="Capa 1"><path class="cls-1" d="M26.23,3.91c-1.89-.28-1.77,1.66-2.7,2.44-1.41,1.2-3,3-3.91-.49-.5-1.95-2.08-2-3.65-2h-.85v.76L15.27,8a.59.59,0,0,0,.41.4c1.72-.19,3.23-.19,3.4,2.19.09,1.18,1.16,1.47,2.24,1.48s1.92-.35,2-1.65c0-.87.08-2,1.21-2,3,.09,2.48-2,2.59-3.83V3.91Z"/><path class="cls-2" d="M34.58,22.87c1.41-.64,4.13,1,3.9-2.58-.07-1.16,1.91-.25,2.84-.72,0-2.76-.11-5.51,0-8.26.15-2.4-.9-3.16-3.09-2.84a6.51,6.51,0,0,1-.56,3.61c0,1.5-.1,3,.05,4.49C38,19,37,20.08,34.58,19.68Z"/><path class="cls-2" d="M11.33,27.24c.24,1.68-.92,4.32,2.6,3.74,1-.17,1.31.53,1.17,1.37-.32,2,.61,2.62,2.46,2.38.61-.08,1.37,0,1.27.88-.33,2.79,1.66,2.07,3.11,2.09,2.49,0,1-2,1.44-3l0,0c-3.1.67-4.22-.78-3.95-3.71a1.14,1.14,0,0,1-.52,0c-1-.19-2.75.4-2.82-.95-.17-3.55-2.55-2.84-4.66-2.84Z"/><path class="cls-1" d="M7.59,3.87c-3-.52-4.36.59-3.74,3.72l-.69.89c.27,3.75-.74,7.57.69,11.24h.68c0-2.75.13-5.5,0-8.23C4.35,9,5.27,8,7.72,8.4A.75.75,0,0,0,8.2,8l.15-3.55a1.79,1.79,0,0,0,0-.61Z"/><path class="cls-2" d="M4.53,19.73H3.85c0,1.87-.28,4,2.69,3.73.8-.07,1.19.38,1.06,1.11-.62,3.53,2,2.49,3.73,2.68l.06-.06,0-3.76c-1.21-.18-2.9.49-3.14-1.5C8,19.42,6.23,19.67,4.53,19.73Z"/><path class="cls-2" d="M3.85,19.72c-1.43-3.67-.42-7.49-.69-11.24C1.25,8.24.83,9.29.87,11c.07,2.87,0,5.74,0,8.62Z"/><path class="cls-3" d="M27,30.91a.54.54,0,0,0,.1-.53c0-1.07,0-2.14,0-3.2l0,0H23.36V31Z"/><path class="cls-3" d="M30.73,27.17a.55.55,0,0,0,.1-.55v-3.2l0,0c-3-.49-4.27.73-3.75,3.76l0,0Z"/><path class="cls-3" d="M34.58,22.87V19.68H30.85v3.75l0,0,3.65-.06A.43.43,0,0,0,34.58,22.87Z"/><path class="cls-2" d="M27,30.91,23.37,31l0,0-.05,3.73,0,0C26.35,35.13,27.66,34,27,30.91Z"/><path class="cls-2" d="M37.59,4l-2.94-.17L34.54,4a1.46,1.46,0,0,1-.65,1.47c0,.83-.19,1.73.69,2.3l2.93,0Z"/><path class="cls-4" d="M.9,19.57c0-2.88,0-5.75,0-8.62,0-1.66.38-2.71,2.29-2.47l.69-.89C.46,6.93-.38,8.67.14,11.62.61,14.25-.85,17.06.9,19.57Z"/><path class="cls-2" d="M34.48,23.36l-3.65.06v3.2C32.76,26.34,35.55,27,34.48,23.36Z"/><path class="cls-2" d="M30.73,27.17H27.08c0,1.06,0,2.13,0,3.2C28.93,30,31.83,30.87,30.73,27.17Z"/><path class="cls-4" d="M38.28,8.47c2.19-.32,3.24.44,3.09,2.84-.16,2.75,0,5.5,0,8.26,1.76-3.61.63-7.44.59-11.14,0-1.65-2.34-.32-3.52-.81l-.07.07Z"/><path class="cls-4" d="M7.59,3.87l.75-.07C8,1,9.68.91,11.79.87s3.71.36,3.33,3H16C16.75-1.2,13,.56,10.49.11,6.82-.55,7.75,2,7.59,3.87Z"/><path class="cls-4" d="M26.23,3.91h.87C26.75,1.41,28,.8,30.29.86s4,.06,3.56,3l.69.06.11-.08C34.45,2,35.39-.53,31.72.1,29.17.54,25.5-1.13,26.23,3.91Z"/><path class="cls-4" d="M37.59,4c0,1.24-.05,2.49-.08,3.73l.81-.08.07-.07C37.89,6.48,39.18,4.94,37.59,4Z"/><path class="cls-3" d="M4.53,19.73c1.7-.06,3.45-.31,3.75,2.19.24,2,1.93,1.32,3.14,1.5,1.61,0,3.22.07,4.83,0,1.06-.05,3,.33,3-.7C19,19.07,24.34,20,24,16.33c-.07-.77,2.91.25,3-1.83.08-1.46.56-2.26,2.12-2.46,1.34-.17,1.69-1.28,1.69-2.5V4.69l-3.74,0c-.11,1.78.43,3.92-2.59,3.83-1.13,0-1.18,1.09-1.21,2-.06,1.3-.83,1.67-2,1.65s-2.15-.3-2.24-1.48c-.17-2.38-1.68-2.38-3.39-2.19-.09,1.13-.17,2.26-.26,3.38q1.41,5-3.64,3.74c-3.08.89-4.47-.14-4.07-3.45a28.7,28.7,0,0,0,0-3.71C5.27,8,4.35,9,4.5,11.5,4.66,14.23,4.53,17,4.53,19.73Z"/><path class="cls-5" d="M7.72,8.4a28.7,28.7,0,0,1,0,3.71c-.4,3.31,1,4.34,4.07,3.45-.27-2.7,1.1-3.79,3.64-3.74.09-1.12.17-2.25.26-3.38a.58.58,0,0,1-.42-.4L8.2,8A.75.75,0,0,1,7.72,8.4Z"/><path class="cls-2" d="M27.1,4.67l3.74,0,3,0,0-.84c.45-3-1.4-3-3.56-3s-3.54.55-3.19,3.05Z"/><path class="cls-3" d="M8.2,8,15.27,8l-.15-3.38L8.35,4.41Z"/><path class="cls-2" d="M8.35,4.41l6.77.25V3.9C15.5,1.23,14,.82,11.79.87S8,1,8.34,3.8A1.79,1.79,0,0,1,8.35,4.41Z"/><path class="cls-3" d="M34.58,19.68c2.46.4,3.42-.66,3.19-3.11-.15-1.49,0-3-.05-4.49l-3.12.05L34.55,16l.05,3.73Z"/><path class="cls-6" d="M34.6,12.13l3.12-.05a6.51,6.51,0,0,0,.56-3.61c0-.26,0-.52,0-.78l-.81.08-2.93,0C34.58,9.19,34.59,10.66,34.6,12.13Z"/><path class="cls-7" d="M34.6,12.13c0-1.47,0-2.94,0-4.41-.88-.57-.69-1.47-.69-2.3a2.69,2.69,0,0,1-.06-.69l-3,0V9.54c0,1.22-.35,2.33-1.69,2.5-1.56.2-2,1-2.12,2.46-.12,2.08-3.1,1.06-3,1.83.34,3.7-5.05,2.74-4.79,6.4.07,1-1.9.65-3,.7-1.61.06-3.22,0-4.83,0l0,3.76c2.11,0,4.49-.71,4.66,2.84.07,1.35,1.81.76,2.82.95-.77-4,1.75-4,4.49-3.77h0c-.56-1.88-1-3.69,1.9-3.89a1.39,1.39,0,0,0,.95-.93c.29-3.15,2.59-2.68,4.64-2.69h0c-.46-2.93.66-4.29,3.7-3.73Z"/><path class="cls-6" d="M23.36,27.2C20.62,27,18.1,27,18.87,31a1.18,1.18,0,0,0,.53,0l4,0,0,0C23.37,29.73,23.36,28.46,23.36,27.2Z"/><path class="cls-3" d="M23.39,31l-4,0c-.28,2.93.84,4.38,3.94,3.71C23.36,33.45,23.38,32.2,23.39,31Z"/><path class="cls-6" d="M30.85,19.69c-2.05,0-4.35-.46-4.64,2.69a1.39,1.39,0,0,1-.95.93c-2.94.2-2.46,2-1.9,3.89H27.1c-.52-3,.76-4.25,3.75-3.76Z"/><path class="cls-6" d="M34.55,16c-3-.56-4.16.8-3.7,3.73H34.6Z"/><path class="cls-1" d="M33.83,4.73a2.69,2.69,0,0,0,.06.69A1.46,1.46,0,0,0,34.54,4l-.69-.06Z"/><path class="cls-8" d="M15.43,11.82c-2.54-.05-3.91,1-3.64,3.74Q16.85,16.86,15.43,11.82Z"/></g></g></svg>