<svg xmlns="http://www.w3.org/2000/svg" viewBox="0 0 50.13 30.23"><defs><style>.cls-1{fill:#13100d;}.cls-2{fill:#fef6f0;}.cls-3{fill:#222120;}.cls-4{fill:#bbbab6;}.cls-5{fill:#ca7628;}.cls-6{fill:#9f5519;}.cls-7{fill:#938c86;}.cls-8{fill:#925320;}.cls-9{fill:#f8a63c;}.cls-10{fill:#975320;}.cls-11{fill:#8f8985;}.cls-12{fill:#dea458;}.cls-13{fill:#f3eee7;}.cls-14{fill:#faa63a;}</style></defs><title>speed</title><g id="Capa_2" data-name="Capa 2"><g id="Capa_1-2" data-name="Capa 1"><path class="cls-1" d="M.12,6.52a15.85,15.85,0,0,0,0-2.67C-.28,1.58.42.35,2.89.58,4.93.63,7,.73,9,.73,16.59.7,24.17.63,31.74.58c1.16.85.67,2,.54,3.06l-4.34.07c-.67,0-1.23.16-1.25,1,0,.59-.23,1.37.44,1.65,1.59.64,3.14-.23,4.66-.48.92-.16.43-1.44.46-2.24l.4-.12.49.12C35,3.4,35.63,4.12,35.45,6a52.44,52.44,0,0,0,0,5.88c.06,1.14.79.6,1.33.53l7.77.07c.38,0,.76,0,1.14,0s1.31,0,1.22.27c-1,3,3.23,2,3.19,4.27-.08,3.82-.06,7.63,0,11.45,0,1.25-.3,1.73-1.65,1.72q-19-.06-37.94,0c-1.36,0-1.66-.52-1.64-1.76.06-3.81,0-7.62,0-11.44,0-.52.31-1.56-.57-1.42-3.13.48-2-1.95-2.44-3.34a3.21,3.21,0,0,0,2,.17c.53.24,1,.34.94-.5.08-2.25-.44-2.84-2.12-2.29-1.47.47-.23,1.86-.79,2.67a5,5,0,0,1-2.95,0c0-1.83-.07-3.65-.11-5.47,1.67,0,3.33-.13,5-.15.75,0,1.21-.27,1.1-1s.49-1.82-.52-1.95a12,12,0,0,0-5,.08c-1.17.35-.31,2-.62,3.07ZM47,24.23c0-2.2-.06-4.4.05-6.59.08-1.54-.38-2.31-2-2.1a9.22,9.22,0,0,1-1.82,0c-1.32-.12-1.94.33-1.88,1.77.11,2.35.07,4.7.1,7.05-.19,2.85-.18,2.7,3.28,2.88C47.27,27.38,47.36,26.1,47,24.23ZM14.82,27.09q10.34,0,20.67.09c2.85,0,2.85,0,2.66-2.85,0-2-.1-4.13.11-6.16.24-2.39-.79-3-2.88-2.53l-11.85-.22-.09-8.53c.4-3.2.4-3.2-2.68-3.2-2.44,0-4.88,0-7.31,0-1,0-1.54.23-1.52,1.38.09,5.49.12,11,.17,16.45l0,2.79C11.77,27.41,11.77,27.41,14.82,27.09ZM30.34,9.63H28.56c-1.06-.05-1.95,0-1.9,1.49s.88,1.36,1.83,1.34,1.81,0,2.72,0c.6,0,1-.27,1.06-.92s.27-1.37-.37-1.64A4.11,4.11,0,0,0,30.34,9.63Z"/><path class="cls-2" d="M31.74.58C24.17.63,16.59.7,9,.73,7,.73,4.93.63,2.89.58,3.24-.13,3.9,0,4.5,0H30.14C30.73,0,31.39-.13,31.74.58Z"/><path class="cls-3" d="M3.1,21.51a8.08,8.08,0,0,1-2.64-.3c-.76-.35-.33-1.36-.34-2.08s.59-.75,1.14-.76H4c1.14,0,2.22-.25,2.17,1.62S5,21.41,4,21.44h-.9Z"/><path class="cls-3" d="M4.63,27.25C3.21,27.5,3,26.8,3,25.7c0-1.3.58-1.43,1.65-1.48,1.28-.06,1.48.52,1.49,1.61S5.72,27.57,4.63,27.25Z"/><path class="cls-2" d="M.12,6.52l2.77.37h0L3,12.36a1,1,0,0,1-.55-1.15C2.8,9.07,2.32,7.37.12,6.52Z"/><path class="cls-4" d="M36.8,12.44c-.54.07-1.27.61-1.33-.53A1.88,1.88,0,0,1,36.8,12.44Z"/><path class="cls-4" d="M33.14,3.62l-.49-.12C32.89,3.25,33,3.46,33.14,3.62Z"/><path class="cls-5" d="M23.44,6.89l.09,8.53c0,3,0,3,3,3s5.9-.05,8.86-.08c-.05,1.4.74,3.27-1.83,3.25L14.7,21.43c0-4.17.14-8.35.08-12.52,0-1.6.5-2.15,2.09-2.08,2,.08,4.09,0,6.14-.08A3.59,3.59,0,0,1,23.44,6.89Z"/><path class="cls-6" d="M14.7,21.43l18.82.11c2.57,0,1.78-1.85,1.83-3.25l0-2.65c2.09-.45,3.12.14,2.88,2.53-.21,2-.09,4.11-.11,6.16l-23.37.09-2.71-.13,0-2.79a1.26,1.26,0,0,0,.42-.16Z"/><path class="cls-7" d="M14.78,24.42l23.37-.09c.19,2.84.19,2.86-2.66,2.85q-10.33,0-20.67-.09C14.81,26.2,14.79,25.31,14.78,24.42Z"/><path class="cls-8" d="M41.4,24.36c0-2.35,0-4.7-.1-7-.06-1.44.56-1.89,1.88-1.77a9.22,9.22,0,0,0,1.82,0c1.64-.21,2.1.56,2,2.1-.11,2.19,0,4.39-.05,6.59Z"/><path class="cls-9" d="M35.38,15.64l0,2.65c-3,0-5.91.07-8.86.08s-3,0-3-3Z"/><path class="cls-4" d="M2.89,6.89c.31-1-.55-2.72.62-3.07a12,12,0,0,1,5-.08c1,.13.43,1.27.52,2s-.35,1-1.1,1c-1.67,0-3.33.1-5,.15Z"/><path class="cls-10" d="M30.34,9.63a4.11,4.11,0,0,1,1.56.25c.64.27.39,1.06.37,1.64s-.46.91-1.06.92c-.91,0-1.81,0-2.72,0s-1.79,0-1.83-1.34.84-1.54,1.9-1.49Z"/><path class="cls-11" d="M41.4,24.36,47,24.23c.39,1.87.3,3.15-2.29,3C41.22,27.06,41.21,27.21,41.4,24.36Z"/><path class="cls-12" d="M12.52,21.34a1.26,1.26,0,0,1-.42.16c0-5.48-.08-11-.17-16.45,0-1.15.51-1.39,1.52-1.38,2.43.05,4.87,0,7.31,0,3.08,0,3.08,0,2.68,3.2A3.59,3.59,0,0,0,23,6.75c.41-2.13-.49-2.84-2.59-2.65a32.23,32.23,0,0,1-5.47,0C13.1,4,12.42,4.55,12.47,6.5,12.6,11.45,12.52,16.4,12.52,21.34Z"/><path class="cls-8" d="M32.25,3.62c0,.8.46,2.08-.46,2.24-1.52.25-3.07,1.12-4.66.48-.67-.28-.45-1.06-.44-1.65,0-.82.58-1,1.25-1l4.34-.07Z"/><path class="cls-13" d="M14.78,24.42c0,.89,0,1.78,0,2.67-3.05.32-3.05.32-2.75-2.8Z"/><path class="cls-2" d="M7.92,12.44a3.21,3.21,0,0,1-2-.17l.06.05c.56-.81-.68-2.2.79-2.67,1.68-.55,2.2,0,2.12,2.29Z"/><path class="cls-4" d="M7.92,12.44l.94-.5C8.9,12.78,8.45,12.68,7.92,12.44Z"/><path class="cls-14" d="M12.52,21.34c0-4.94.08-9.89,0-14.84C12.42,4.55,13.1,4,15,4.11a32.23,32.23,0,0,0,5.47,0c2.1-.19,3,.52,2.59,2.65-2.05,0-4.1.16-6.14.08-1.59-.07-2.11.48-2.09,2.08.06,4.17,0,8.35-.08,12.52Z"/></g></g></svg>