<svg xmlns="http://www.w3.org/2000/svg" viewBox="0 0 71.44 24.62"><defs><style>.cls-1{fill:#474940;}.cls-2{fill:#3b3939;}.cls-3{fill:#63811f;}.cls-4{fill:#8ebb21;}.cls-5{fill:#ebefe6;}.cls-6{fill:#9eda4a;}.cls-7{fill:#92de2a;}</style></defs><title>weight</title><g id="Capa_2" data-name="Capa 2"><g id="Capa_1-2" data-name="Capa 1"><path class="cls-1" d="M26.86,8.72c.26-1.45-.34-2-1.78-1.74s-2-.36-1.76-1.78c.09-.57-.07-1.18,0-1.75.25-1.47-.34-2-1.78-1.74h0l-.12,1.77.09,5.2,5.3.06Z"/><path class="cls-1" d="M21.55,22.73c1.46.38,2-.18,1.79-1.65-.06-.4.05-.82,0-1.22-.28-1.76.16-2.72,2.23-2.37,1.27.22,1.24-.85,1.32-1.7l0,0-5.24,0L21.49,21Z"/><path class="cls-1" d="M11,19.3c-.25,1.43.31,1.95,1.77,1.76.81-.1,2-.44,1.79,1.19-.08.63.47.52.86.53l2.62,0,0-1.7c-.6-.16-1.29.13-1.82-.36-.72-.06-1.46-.09-1.31-1.14l-2.11-.34-1.73,0Z"/><path class="cls-1" d="M27.54,15.7h.72l.3-.29V9.08l-.3-.3h-.72s-.07.12-.09.12-.16-.08-.24-.11l-.35-.08,0,0c0,.6-.05,1.19-.07,1.79v1.69l0,1.74,0,1.79,0,0a1,1,0,0,0,.34-.09.65.65,0,0,1,.09-.11A1.75,1.75,0,0,1,27.54,15.7Z"/><path class="cls-2" d="M1.94,10.54c-.62.09-1.57-.49-1.78.38a5,5,0,0,0,.1,2.88c.22.57,1.27.09,1.93.24l0-.4,0-1.42A2.25,2.25,0,0,1,1.94,10.54Z"/><path class="cls-3" d="M2.24,12.22c0,.47,0,.95,0,1.42,1.57-.06,1.42,1.06,1.43,2.07a.5.5,0,0,0,.27.07l1.79,0c0-.6.17-1.5-.6-1.61-1.26-.19-1.2-1-1.2-1.85l-.29-.07Z"/><path class="cls-3" d="M18,21.12l0,1.7,0,0h3.24a.84.84,0,0,0,.31-.08L21.49,21Z"/><path class="cls-1" d="M18,1.71a11.35,11.35,0,0,1-1.75,0c-1.47-.24-2.05.31-1.76,1.77h0l1.76,0L18,3.42l.1-1.7Z"/><path class="cls-1" d="M14.52,3.47a10.22,10.22,0,0,1-1.75,0c-1.47-.24-2.06.31-1.77,1.77h0l1.77.06,1.61-.14.14-1.67Z"/><path class="cls-1" d="M7.46,17.54c-.24,1.43.32,2,1.78,1.76a9.19,9.19,0,0,1,1.74,0l0,0-.09-1.65-1.69-.09-1.75,0Z"/><path class="cls-1" d="M11,5.22a9.29,9.29,0,0,1-1.75,0c-1.52-.3-2,.41-1.81,1.76L9.25,7,10.6,7A2.88,2.88,0,0,0,11,5.23Z"/><path class="cls-1" d="M5.71,15.76l-1.79,0c-.18,1.37.29,2,1.79,1.76a10.23,10.23,0,0,1,1.75,0l0,0a3.5,3.5,0,0,1-.4-1.68Z"/><path class="cls-1" d="M18.11,1.35,18,1.71h0l1.78,0,1.74,0h0l-.06-.36c-.18-.11-.17-.22,0-.33V.3L21.22,0H18.39l-.3.29V1C18.27,1.13,18.28,1.24,18.11,1.35Z"/><path class="cls-1" d="M21.24,22.81H18c-.09,1.16.07,1.83,1.62,1.82S21.36,24,21.24,22.81Z"/><path class="cls-1" d="M7.21,7A10.54,10.54,0,0,1,5.83,7C4.4,6.72,3.66,7.18,3.9,8.74l1.83.06,1.38-.08Z"/><path class="cls-4" d="M7.21,7c0,.56-.07,1.13-.1,1.69,1.27.14,2.33,0,2.14-1.7L7.44,7A.31.31,0,0,0,7.21,7Z"/><path class="cls-4" d="M5.73,8.8,3.9,8.74a.17.17,0,0,0-.19,0c0,.57-.07,1.14-.1,1.71l.07.07C4.86,10.55,6,10.43,5.73,8.8Z"/><path class="cls-4" d="M2.24,12.22H3.62l.06-1.67-.07-.07H2.14a.23.23,0,0,0-.21,0A2.31,2.31,0,0,0,2.24,12.22Z"/><path class="cls-1" d="M3.65,15.71c0-1,.14-2.13-1.43-2.07l0,.4C2.15,15.05,2,16.16,3.65,15.71Z"/><path class="cls-1" d="M2.14,10.49H3.61c0-.57.07-1.14.1-1.71C2,8.31,2.19,9.49,2.14,10.49Z"/><path class="cls-2" d="M21.22,0l.3.29C21.56.07,21.46,0,21.22,0Z"/><path class="cls-2" d="M18.09.3l.3-.29C18.15,0,18.05.07,18.09.3Z"/><path class="cls-2" d="M21.52,1c-.18.11-.19.22,0,.33l0-.16Z"/><path class="cls-2" d="M18.11,1.35c.17-.11.16-.22,0-.33A.3.3,0,0,0,18.11,1.35Z"/><path class="cls-2" d="M27.21,8.8c.08,0,.15.08.24.11s.06-.08.09-.12A.33.33,0,0,0,27.21,8.8Z"/><path class="cls-2" d="M27.54,15.7a1.75,1.75,0,0,0-.24-.11.65.65,0,0,0-.09.11A.32.32,0,0,0,27.54,15.7Z"/><path class="cls-2" d="M28.26,8.78l.3.3Q28.62,8.72,28.26,8.78Z"/><path class="cls-2" d="M28.56,15.42l-.3.29C28.5,15.75,28.6,15.65,28.56,15.42Z"/><path class="cls-5" d="M21.54,8.68l-.09-5.2H19.8c0,1.21,0,2.42-.09,3.61-.14,1.41.41,1.91,1.76,1.63Z"/><path class="cls-4" d="M26.77,10.53l.07-1.79-5.3-.06-.07,0c.09.94,0,2,1.51,1.79C24.25,9.62,25.5,10.73,26.77,10.53Z"/><path class="cls-6" d="M19.8,3.47h1.65l.12-1.77-1.74,0c-.06.56-.11,1.12-.16,1.68Z"/><path class="cls-4" d="M5.71,15.76l1.38.06c1.34-.23,2.33,0,2.15,1.7l1.69.09c1.5-.41,2,.25,1.82,1.67l2.11.34c1.53-.86,1.45.11,1.31,1.14.53.49,1.22.2,1.82.36l3.5-.14c0-1.73.07-3.46.1-5.19-.32-1.5.37-1.92,1.77-1.81,1.14.09,2.29,0,3.43,0,0-.58,0-1.16,0-1.74-1.26-.05-2.52.91-3.79,0L3.91,12.3c0,.86-.06,1.66,1.2,1.85C5.88,14.26,5.66,15.16,5.71,15.76Z"/><path class="cls-3" d="M26.79,14c-1.14,0-2.29.11-3.43,0-1.4-.11-2.09.31-1.77,1.81l5.24,0Z"/><path class="cls-3" d="M12.75,19.28c.19-1.42-.32-2.08-1.82-1.67L11,19.26Z"/><path class="cls-3" d="M16.17,20.76c.14-1,.22-2-1.31-1.14C14.71,20.67,15.45,20.7,16.17,20.76Z"/><path class="cls-6" d="M23,12.25c1.27.88,2.53-.08,3.79,0V10.53c-1.27.2-2.52-.91-3.79,0Z"/><path class="cls-7" d="M23,12.25V10.5c-1.53.26-1.42-.85-1.51-1.79-1.35.28-1.9-.22-1.76-1.63.12-1.19.07-2.4.09-3.61l-.13-.05H18l-1.66.08c.22,1.53-.49,2-1.9,1.65l-1.61.14c.3,1.89-.94,1.78-2.18,1.66L9.25,7c.19,1.7-.87,1.84-2.14,1.7L5.73,8.8c.22,1.63-.87,1.75-2.05,1.76l-.06,1.67.29.07Z"/><path class="cls-4" d="M14.39,5.15c1.41.34,2.12-.12,1.9-1.65l-1.76,0Z"/><path class="cls-4" d="M18,3.42h1.72c0-.56.1-1.12.16-1.68l-1.78,0Z"/><path class="cls-4" d="M10.6,7c1.24.12,2.48.23,2.18-1.66L11,5.23A2.88,2.88,0,0,1,10.6,7Z"/><path class="cls-3" d="M9.24,17.52c.18-1.7-.81-1.93-2.15-1.7a3.5,3.5,0,0,0,.4,1.68Z"/><path class="cls-1" d="M44.58,15.9c-.26,1.45.35,2,1.79,1.74s2,.36,1.75,1.78c-.08.57.07,1.18,0,1.75-.24,1.47.34,2,1.78,1.74h0L50,21.14l-.09-5.2-5.3-.07Z"/><path class="cls-1" d="M49.89,1.89c-1.46-.38-2,.18-1.79,1.65.06.4,0,.82,0,1.22.29,1.76-.16,2.72-2.22,2.37-1.27-.22-1.24.85-1.33,1.7l0,0,5.25,0L50,3.64Z"/><path class="cls-1" d="M60.46,5.32c.26-1.43-.31-1.95-1.77-1.76-.81.1-2,.44-1.79-1.19.08-.63-.47-.52-.85-.53l-2.62,0c0,.57,0,1.13,0,1.7.6.16,1.29-.13,1.83.36C56,3.92,56.73,4,56.58,5l2.11.34,1.74,0Z"/><path class="cls-1" d="M43.9,8.92h-.72l-.29.29v6.34l.3.29h.72a.89.89,0,0,1,.09-.12,1.33,1.33,0,0,1,.24.11l.35.08,0,0c0-.59,0-1.18.08-1.78s0-1.13,0-1.69l0-1.74,0-1.79,0,0a1,1,0,0,0-.34.09s-.07.11-.09.11Z"/><path class="cls-2" d="M69.51,14.08c.62-.09,1.56.49,1.78-.38a5.12,5.12,0,0,0-.11-2.88c-.21-.57-1.26-.09-1.92-.24l0,.4,0,1.42A2.31,2.31,0,0,1,69.51,14.08Z"/><path class="cls-3" d="M69.2,12.4l0-1.42c-1.57.06-1.42-1.06-1.44-2.07a.48.48,0,0,0-.26-.07l-1.8,0c0,.6-.17,1.5.6,1.61,1.26.19,1.2,1,1.21,1.85l.28.07Z"/><path class="cls-3" d="M53.45,3.5c0-.57,0-1.13,0-1.7v0H50.2a.84.84,0,0,0-.31.08L50,3.64Z"/><path class="cls-1" d="M53.41,22.91a11.35,11.35,0,0,1,1.75,0c1.48.24,2.05-.31,1.76-1.77h0l-1.76,0-1.66.08-.1,1.7Z"/><path class="cls-1" d="M56.92,21.15a10.32,10.32,0,0,1,1.76,0c1.46.24,2-.31,1.77-1.77h0l-1.76-.06-1.62.14-.14,1.67Z"/><path class="cls-1" d="M64,7.07c.24-1.42-.33-2-1.78-1.75a9.3,9.3,0,0,1-1.75,0l0,0L60.51,7l1.69.09,1.75,0Z"/><path class="cls-1" d="M60.45,19.4a9.3,9.3,0,0,1,1.75,0c1.51.3,2-.41,1.81-1.76l-1.82,0-1.35.07a3,3,0,0,0-.41,1.72Z"/><path class="cls-1" d="M65.73,8.86l1.8,0c.17-1.37-.29-2-1.8-1.76a9.2,9.2,0,0,1-1.74,0l0,0a3.63,3.63,0,0,1,.41,1.68Z"/><path class="cls-1" d="M53.34,23.27l.07-.36h0l-1.77,0-1.75,0h0l.06.36c.18.11.17.22,0,.33v.71l.3.3h2.84l.29-.3V23.6C53.17,23.49,53.17,23.38,53.34,23.27Z"/><path class="cls-1" d="M50.2,1.81h3.24C53.53.66,53.38,0,51.83,0S50.08.61,50.2,1.81Z"/><path class="cls-1" d="M64.23,17.59a12.63,12.63,0,0,1,1.38.06c1.43.24,2.18-.21,1.94-1.77l-1.84-.06-1.37.08Z"/><path class="cls-4" d="M64.23,17.59c0-.56.07-1.13.11-1.69-1.28-.14-2.34,0-2.15,1.7l1.82,0A.3.3,0,0,0,64.23,17.59Z"/><path class="cls-4" d="M65.71,15.82l1.84.06a.15.15,0,0,0,.18,0c0-.57.07-1.14.11-1.71l-.08-.07C66.58,14.07,65.49,14.18,65.71,15.82Z"/><path class="cls-4" d="M69.2,12.4H67.82l-.06,1.67.08.07h1.47a.21.21,0,0,0,.2-.05A2.31,2.31,0,0,0,69.2,12.4Z"/><path class="cls-1" d="M67.79,8.91c0,1-.13,2.13,1.44,2.07l0-.4C69.29,9.57,69.43,8.46,67.79,8.91Z"/><path class="cls-1" d="M69.31,14.13H67.84c0,.57-.07,1.14-.11,1.71C69.4,16.31,69.25,15.13,69.31,14.13Z"/><path class="cls-2" d="M50.22,24.61l-.3-.3C49.89,24.55,50,24.65,50.22,24.61Z"/><path class="cls-2" d="M53.35,24.31l-.29.3C53.29,24.65,53.39,24.55,53.35,24.31Z"/><path class="cls-2" d="M49.92,23.6c.18-.11.19-.22,0-.33l0,.16Z"/><path class="cls-2" d="M53.34,23.27c-.17.11-.17.22,0,.33A.35.35,0,0,0,53.34,23.27Z"/><path class="cls-2" d="M44.23,15.82a1.33,1.33,0,0,0-.24-.11.89.89,0,0,0-.09.12A.35.35,0,0,0,44.23,15.82Z"/><path class="cls-2" d="M43.9,8.92l.24.11s.06-.07.09-.11A.33.33,0,0,0,43.9,8.92Z"/><path class="cls-2" d="M43.18,15.83l-.3-.29C42.84,15.78,42.94,15.88,43.18,15.83Z"/><path class="cls-2" d="M42.89,9.2l.29-.29C42.94,8.87,42.85,9,42.89,9.2Z"/><path class="cls-5" d="M49.9,15.94l.09,5.2h1.65c0-1.21,0-2.42.1-3.61.13-1.41-.42-1.91-1.77-1.63Z"/><path class="cls-4" d="M44.68,14.09l-.08,1.78,5.3.07.07,0c-.09-.94,0-2.05-1.51-1.79C47.19,15,45.94,13.89,44.68,14.09Z"/><path class="cls-6" d="M51.64,21.15H50l-.12,1.77,1.75,0,.15-1.68Z"/><path class="cls-4" d="M65.73,8.86,64.36,8.8C63,9,62,8.8,62.2,7.1L60.51,7c-1.5.41-2-.25-1.82-1.67L56.58,5c-1.53.86-1.44-.11-1.3-1.14-.54-.49-1.23-.2-1.83-.36L50,3.64l-.09,5.19c.31,1.49-.38,1.92-1.78,1.81-1.13-.09-2.29,0-3.43,0,0,.58,0,1.16,0,1.74,1.27,0,2.52-.91,3.8,0l19.07,0c0-.86,0-1.66-1.21-1.85C65.56,10.36,65.78,9.46,65.73,8.86Z"/><path class="cls-3" d="M44.65,10.66c1.14,0,2.3-.11,3.43,0,1.4.11,2.09-.32,1.78-1.81l-5.25,0Z"/><path class="cls-3" d="M58.69,5.34C58.5,6.76,59,7.42,60.51,7c0-.55,0-1.1-.08-1.65Z"/><path class="cls-3" d="M55.28,3.86c-.14,1-.23,2,1.3,1.14C56.73,4,56,3.92,55.28,3.86Z"/><path class="cls-6" d="M48.47,12.37c-1.28-.88-2.53.08-3.8,0,0,.56,0,1.13,0,1.69,1.26-.2,2.51.91,3.78,0C48.46,13.54,48.46,13,48.47,12.37Z"/><path class="cls-7" d="M48.47,12.37c0,.59,0,1.17,0,1.75C50,13.86,49.88,15,50,15.91c1.35-.28,1.9.22,1.77,1.63-.12,1.19-.07,2.4-.1,3.61l.13.05h1.72l1.66-.08c-.22-1.53.5-2,1.9-1.65l1.62-.14c-.3-1.89.93-1.78,2.17-1.66l1.35-.07c-.19-1.7.87-1.84,2.15-1.7l1.37-.08c-.22-1.64.87-1.75,2.05-1.76l.06-1.67-.28-.07Z"/><path class="cls-4" d="M57.05,19.47c-1.4-.34-2.12.12-1.9,1.65l1.76,0Z"/><path class="cls-4" d="M53.49,21.2H51.77l-.15,1.68,1.77,0Z"/><path class="cls-4" d="M60.84,17.67c-1.24-.12-2.47-.23-2.17,1.66l1.76.06A3,3,0,0,1,60.84,17.67Z"/><path class="cls-3" d="M62.2,7.1C62,8.8,63,9,64.36,8.8A3.63,3.63,0,0,0,64,7.12Z"/></g></g></svg>